<svg fill="none" height="70" viewBox="0 0 66 70" width="66" xmlns="http://www.w3.org/2000/svg"><g fill="#009185"><path d="m64.5546 30.4344-11.1515-11.1515c-.3913-.3913-.9041-.631-1.4423-.6945v-2.5641h2.9543c.9888 0 1.8723-.5903 2.2509-1.5039.3784-.9137.1712-1.9559-.528-2.6551l-11.1517-11.151489c-.4602-.460333-1.072-.713811-1.7229-.713811s-1.2626.253478-1.7229.713675l-11.1515 11.151525c-.6992.6993-.9065 1.7415-.528 2.6551.3785.9137 1.2619 1.5039 2.2509 1.5039h2.9541v12.6326c-1.1735-.2061-2.3803-.3142-3.612-.3142-1.1305 0-2.2399.0919-3.3221.266v-3.564h2.9542c.9889 0 1.8724-.5903 2.2509-1.5039.3785-.9137.1712-1.9559-.528-2.6551l-4.7913-4.7913c-.4006-.4004-1.0497-.4004-1.4502 0-.4004.4005-.4004 1.0498 0 1.4501l4.7913 4.7913c.1585.1585.1205.3313.0836.4203-.0369.0888-.1321.238-.3562.238h-3.9796c-.5664 0-1.0254.4591-1.0254 1.0254v5.0273c-1.0678.2853-2.1022.6532-3.0956 1.097l-7.4429-7.4428c-.95-.95-2.4955-.9501-3.4456 0l-.2931.2931h-3.02093c-.22422 0-.31951-.1492-.35629-.238-.03678-.0889-.07492-.2617.08367-.4202l11.15155-11.1515c.1504-.1505.3948-.1502.5451 0l2.9727 2.9727c.4005.4005 1.0497.4005 1.4501 0 .4005-.4004.4005-1.0497 0-1.45l-2.9727-2.97272c-.95-.95007-2.4955-.94979-3.4456 0l-11.15133 11.15152c-.69932.6993-.90672 1.7414-.52828 2.6551.37857.9137 1.26205 1.504 2.25108 1.504h.97013l-8.80756 8.8076c-.699322.6993-.906725 1.7415-.528286 2.6551.378576.9137 1.261916 1.5041 2.250946 1.5041h2.95423v26.9878c0 1.3434 1.09294 2.4363 2.43634 2.4363h11.52193c.4463 0 .8808-.1229 1.2582-.3507 3.1105 1.8503 6.7405 2.9149 10.615 2.9149 4.4156 0 8.5138-1.3822 11.8871-3.7352.4283.7009 1.1983 1.1712 2.0781 1.1712h11.5219c1.3434 0 2.4363-1.093 2.4363-2.4364v-30.4061h2.9542c.9889 0 1.8724-.5903 2.251-1.504.3784-.9136.1712-1.9559-.528-2.6551zm-55.99573 34.9506c-.2126 0-.38555-.1729-.38555-.3855v-28.0134c0-.5663-.45897-1.0254-1.02539-1.0254h-3.97977c-.22422 0-.31937-.1491-.35615-.238-.03691-.0889-.07492-.2617.08367-.4203l11.15152-11.1515c.0983-.0983.213-.1129.2725-.1129.0597 0 .1743.0146.2726.1129l6.9727 6.9727c-6.2348 3.6031-10.4395 10.3435-10.4395 18.0476 0 6.5445 3.0349 12.3925 7.77 16.2137h-10.33663zm23.39513 2.5642c-10.354 0-18.7778-8.4237-18.7778-18.7778 0-10.3542 8.4236-18.7779 18.7778-18.7779s18.778 8.4237 18.778 18.7779c0 10.3541-8.4237 18.7778-18.778 18.7778zm31.2339-35.6443c-.0369.0888-.132.238-.3561.238h-3.9796c-.5665 0-1.0254.4591-1.0254 1.0254v31.4312c0 .2126-.1731.3855-.3856.3855h-11.5219c-.2126 0-.3855-.1729-.3855-.3855 0-.0155-.0017-.0305-.0023-.0458 4.4373-3.8227 7.2514-9.4798 7.2514-15.7823 0-2.0099-.2883-3.9534-.8221-5.7935v-12.4892c0-.5663-.4589-1.0254-1.0254-1.0254-.5664 0-1.0254.4591-1.0254 1.0254v7.7386c-2.6939-4.5698-7.0809-8.0276-12.2931-9.502v-14.1264c0-.5663-.459-1.0254-1.0254-1.0254h-3.9796c-.2242 0-.3194-.1491-.3562-.238-.0369-.0889-.0749-.2618.0836-.4203l11.1515-11.15162c.0983-.09816.213-.11293.2726-.11293s.1742.01463.2725.11293l11.1516 11.15152c.1585.1584.1205.3313.0836.4203-.0369.0888-.1321.238-.3562.238h-3.9796c-.5664 0-1.0254.4591-1.0254 1.0254v11.0989c0 .5663.459 1.0254 1.0254 1.0254s1.0254-.4591 1.0254-1.0254v-5.357l11.1437 11.1436c.1585.1587.1204.3315.0835.4206z"/><path d="m31.9539 32.6138c-3.5164 0-6.8757 1.0891-9.7149 3.1497-.4585.3326-.5603.9738-.2277 1.4321.3327.4584.974.5603 1.4323.2277 2.4866-1.8047 5.4295-2.7587 8.5103-2.7587 7.9989 0 14.5064 6.5075 14.5064 14.5062 0 7.9989-6.5075 14.5064-14.5064 14.5064s-14.5064-6.5075-14.5064-14.5064c0-3.118.9749-6.0897 2.8194-8.5936.3359-.4559.2386-1.0978-.2174-1.4337-.4556-.3358-1.0977-.2385-1.4336.2173-2.106 2.859-3.2192 6.2512-3.2192 9.81 0 9.1297 7.4275 16.5572 16.5572 16.5572s16.5572-7.4275 16.5572-16.5572c0-9.1295-7.4275-16.557-16.5572-16.557z"/><path d="m31.954 60.6185c6.3121 0 11.4472-5.1352 11.4472-11.4472s-5.1351-11.4472-11.4472-11.4472c-6.312 0-11.4472 5.1352-11.4472 11.4472s5.1352 11.4472 11.4472 11.4472zm0-20.8435c5.1811 0 9.3964 4.2152 9.3964 9.3964 0 5.1813-4.2151 9.3965-9.3964 9.3965-5.1812 0-9.3964-4.2152-9.3964-9.3965 0-5.1812 4.2153-9.3964 9.3964-9.3964z"/><path d="m30.9287 55.1179v.8106c0 .5663.4589 1.0254 1.0253 1.0254.5665 0 1.0254-.4591 1.0254-1.0254v-.8106c2.0965-.3882 3.6683-1.9397 3.6683-3.7902 0-2.7492-2.4919-3.4013-4.3113-3.8775-1.7006-.445-2.3044-.7053-2.3044-1.2794 0-.6777.8982-1.2722 1.9222-1.2722s1.9222.5945 1.9222 1.2722c0 .5663.459 1.0254 1.0254 1.0254.5665 0 1.0254-.4591 1.0254-1.0254 0-1.5358-1.2523-2.8311-2.9476-3.2102v-.8288c0-.5663-.459-1.0254-1.0254-1.0254s-1.0254.4591-1.0254 1.0254v.8288c-1.6952.3791-2.9475 1.6744-2.9475 3.2102 0 2.2594 2.2171 2.8396 3.836 3.2633 2.0857.5459 2.7798.8961 2.7798 1.8936 0 .9941-1.2104 1.8339-2.6429 1.8339-1.4326 0-2.6428-.8398-2.6428-1.8339 0-.5663-.459-1.0254-1.0254-1.0254s-1.0254.4591-1.0254 1.0254c-.0001 1.8505 1.5717 3.4018 3.6681 3.7902z"/></g></svg>