<svg fill="none" height="66" viewBox="0 0 66 66" width="66" xmlns="http://www.w3.org/2000/svg"><g fill="#009185"><path d="m60.3438 6.75h-5.4688v-2.1875c0-1.16032-.4609-2.27312-1.2814-3.09359-.8205-.820474-1.9333-1.28141-3.0936-1.28141s-2.2731.460936-3.0936 1.28141c-.8205.82047-1.2814 1.93327-1.2814 3.09359v2.1875h-8.75v-2.1875c0-1.16032-.4609-2.27312-1.2814-3.09359-.8205-.820474-1.9333-1.28141-3.0936-1.28141s-2.2731.460936-3.0936 1.28141c-.8205.82047-1.2814 1.93327-1.2814 3.09359v2.1875h-8.75v-2.1875c0-1.16032-.4609-2.27312-1.2814-3.09359-.8205-.820474-1.9333-1.28141-3.0936-1.28141s-2.2731.460936-3.0936 1.28141c-.8205.82047-1.2814 1.93327-1.2814 3.09359v2.1875h-5.46875c-1.4504 0-2.8414.57617-3.86699 1.60176s-1.60176 2.41654-1.60176 3.86704v43.75c0 1.4504.57617 2.8414 1.60176 3.8669 1.02559 1.0256 2.41659 1.6018 3.86699 1.6018h30.62495c.2901 0 .5683-.1152.7734-.3204.2052-.2051.3204-.4833.3204-.7733 0-.2901-.1152-.5683-.3204-.7734-.2051-.2052-.4833-.3204-.7734-.3204h-30.62495c-.86944-.0026-1.70253-.3491-2.31733-.9639-.61479-.6148-.96132-1.4479-.96392-2.3173v-33.9063h61.25v18.5937c0 .2901.1152.5683.3204.7734.2051.2052.4833.3204.7734.3204.29 0 .5682-.1152.7733-.3204.2052-.2051.3204-.4833.3204-.7734v-28.4374c0-1.4505-.5762-2.84145-1.6018-3.86704-1.0255-1.02559-2.4165-1.60176-3.8669-1.60176zm-12.0313-2.1875c0-.58016.2305-1.13656.6407-1.5468.4102-.41023.9666-.6407 1.5468-.6407s1.1366.23047 1.5468.6407c.4102.41024.6407.96664.6407 1.5468v6.5625c0 .5802-.2305 1.1366-.6407 1.5468s-.9666.6407-1.5468.6407-1.1366-.2305-1.5468-.6407-.6407-.9666-.6407-1.5468zm-17.5 0c0-.58016.2305-1.13656.6407-1.5468.4102-.41023.9666-.6407 1.5468-.6407s1.1366.23047 1.5468.6407c.4102.41024.6407.96664.6407 1.5468v6.5625c0 .5802-.2305 1.1366-.6407 1.5468s-.9666.6407-1.5468.6407-1.1366-.2305-1.5468-.6407-.6407-.9666-.6407-1.5468zm-17.5 0c0-.58016.2305-1.13656.6407-1.5468.4102-.41023.9666-.6407 1.5468-.6407s1.1366.23047 1.5468.6407c.4102.41024.6407.96664.6407 1.5468v6.5625c0 .5802-.2305 1.1366-.6407 1.5468s-.9666.6407-1.5468.6407-1.1366-.2305-1.5468-.6407-.6407-.9666-.6407-1.5468zm50.3125 15.3125h-61.25v-7.6562c.0026-.8695.34913-1.7026.96392-2.31738.6148-.61479 1.44789-.96132 2.31733-.96392h5.46875v2.1875c0 1.1603.4609 2.2731 1.2814 3.0936s1.9333 1.2814 3.0936 1.2814 2.2731-.4609 3.0936-1.2814 1.2814-1.9333 1.2814-3.0936v-2.1875h8.75v2.1875c0 1.1603.4609 2.2731 1.2814 3.0936s1.9333 1.2814 3.0936 1.2814 2.2731-.4609 3.0936-1.2814 1.2814-1.9333 1.2814-3.0936v-2.1875h8.75v2.1875c0 1.1603.4609 2.2731 1.2814 3.0936s1.9333 1.2814 3.0936 1.2814 2.2731-.4609 3.0936-1.2814 1.2814-1.9333 1.2814-3.0936v-2.1875h5.4688c.8694.0026 1.7025.34913 2.3173.96392.6148.61478.9613 1.44788.9639 2.31738z"/><path d="m30.8125 29.7188c0-.5802-.2305-1.1366-.6407-1.5468-.4102-.4103-.9666-.6408-1.5468-.6408h-4.375c-.5802 0-1.1366.2305-1.5468.6408-.4102.4102-.6407.9666-.6407 1.5468v3.2812c0 .5802.2305 1.1366.6407 1.5468s.9666.6407 1.5468.6407h4.375c.5802 0 1.1366-.2305 1.5468-.6407s.6407-.9666.6407-1.5468zm-6.5625 3.2812v-3.2812h4.375v3.2812z"/><path d="m17.6875 29.7188c0-.5802-.2305-1.1366-.6407-1.5468-.4102-.4103-.9666-.6408-1.5468-.6408h-4.375c-.5802 0-1.13656.2305-1.5468.6408-.41023.4102-.6407.9666-.6407 1.5468v3.2812c0 .5802.23047 1.1366.6407 1.5468.41024.4102.9666.6407 1.5468.6407h4.375c.5802 0 1.1366-.2305 1.5468-.6407s.6407-.9666.6407-1.5468zm-6.5625 3.2812v-3.2812h4.375v3.2812z"/><path d="m54.875 35.1875c.5802 0 1.1366-.2305 1.5468-.6407s.6407-.9666.6407-1.5468v-3.2812c0-.5802-.2305-1.1366-.6407-1.5468-.4102-.4103-.9666-.6408-1.5468-.6408h-4.375c-.5802 0-1.1366.2305-1.5468.6408-.4102.4102-.6407.9666-.6407 1.5468v3.2812c0 .5802.2305 1.1366.6407 1.5468s.9666.6407 1.5468.6407zm-4.375-5.4687h4.375v3.2812h-4.375z"/><path d="m30.8125 39.5625c0-.5802-.2305-1.1366-.6407-1.5468s-.9666-.6407-1.5468-.6407h-4.375c-.5802 0-1.1366.2305-1.5468.6407s-.6407.9666-.6407 1.5468v3.2813c0 .5801.2305 1.1365.6407 1.5467.4102.4103.9666.6407 1.5468.6407h4.375c.5802 0 1.1366-.2304 1.5468-.6407.4102-.4102.6407-.9666.6407-1.5467zm-6.5625 3.2813v-3.2813h4.375v3.2813z"/><path d="m17.6875 39.5625c0-.5802-.2305-1.1366-.6407-1.5468s-.9666-.6407-1.5468-.6407h-4.375c-.5802 0-1.13656.2305-1.5468.6407-.41023.4102-.6407.9666-.6407 1.5468v3.2813c0 .5801.23047 1.1365.6407 1.5467.41024.4103.9666.6407 1.5468.6407h4.375c.5802 0 1.1366-.2304 1.5468-.6407.4102-.4102.6407-.9666.6407-1.5467zm-6.5625 3.2813v-3.2813h4.375v3.2813z"/><path d="m28.625 47.2188h-4.375c-.5802 0-1.1366.2304-1.5468.6407-.4102.4102-.6407.9666-.6407 1.5467v3.2813c0 .5802.2305 1.1366.6407 1.5468s.9666.6407 1.5468.6407h4.375c.5802 0 1.1366-.2305 1.5468-.6407s.6407-.9666.6407-1.5468v-3.2813c0-.5801-.2305-1.1365-.6407-1.5467-.4102-.4103-.9666-.6407-1.5468-.6407zm-4.375 5.4687v-3.2813h4.375v3.2813z"/><path d="m37.375 35.1875h4.375c.5802 0 1.1366-.2305 1.5468-.6407s.6407-.9666.6407-1.5468v-3.2812c0-.5802-.2305-1.1366-.6407-1.5468-.4102-.4103-.9666-.6408-1.5468-.6408h-4.375c-.5802 0-1.1366.2305-1.5468.6408-.4102.4102-.6407.9666-.6407 1.5468v3.2812c0 .5802.2305 1.1366.6407 1.5468s.9666.6407 1.5468.6407zm0-5.4687h4.375v3.2812h-4.375z"/><path d="m35.1875 42.8438c0 .5801.2305 1.1365.6407 1.5467.4102.4103.9666.6407 1.5468.6407.2901 0 .5683-.1152.7734-.3203s.3204-.4833.3204-.7734-.1153-.5683-.3204-.7734-.4833-.3203-.7734-.3203v-3.2813h4.375c.2901 0 .5683-.1152.7734-.3204.2051-.2051.3204-.4833.3204-.7733 0-.2901-.1153-.5683-.3204-.7734-.2051-.2052-.4833-.3204-.7734-.3204h-4.375c-.5802 0-1.1366.2305-1.5468.6407s-.6407.9666-.6407 1.5468z"/><path d="m15.5 47.2188h-4.375c-.5802 0-1.13656.2304-1.5468.6407-.41023.4102-.6407.9666-.6407 1.5467v3.2813c0 .5802.23047 1.1366.6407 1.5468.41024.4102.9666.6407 1.5468.6407h4.375c.5802 0 1.1366-.2305 1.5468-.6407s.6407-.9666.6407-1.5468v-3.2813c0-.5801-.2305-1.1365-.6407-1.5467-.4102-.4103-.9666-.6407-1.5468-.6407zm-4.375 5.4687v-3.2813h4.375v3.2813z"/><path d="m51.5938 37.375c-2.8123 0-5.5613.8339-7.8996 2.3963-2.3382 1.5624-4.1607 3.783-5.2369 6.3812-1.0761 2.5981-1.3577 5.457-.8091 8.2152s1.9029 5.2917 3.8914 7.2802 4.522 3.3427 7.2802 3.8914c2.7582.5486 5.6171.267 8.2152-.8091 2.5982-1.0762 4.8188-2.8987 6.3812-5.2369 1.5624-2.3383 2.3963-5.0874 2.3963-7.8996-.0043-3.7697-1.5038-7.3837-4.1694-10.0493s-6.2796-4.1651-10.0493-4.1694zm0 26.25c-2.3796 0-4.7057-.7056-6.6842-2.0276-1.9786-1.3221-3.5207-3.2011-4.4313-5.3995s-1.1488-4.6175-.6846-6.9513c.4642-2.3339 1.6101-4.4776 3.2927-6.1602s3.8263-2.8285 6.1602-3.2927c2.3338-.4643 4.7529-.226 6.9513.6846s4.0775 2.4527 5.3995 4.4312c1.322 1.9786 2.0276 4.3047 2.0276 6.6842-.0038 3.1898-1.2725 6.2478-3.528 8.5033-2.2555 2.2554-5.3135 3.5242-8.5032 3.528z"/><path d="m57.9133 47.0087-8.5071 8.5072-3.8665-3.8675c-.2062-.1993-.4825-.3095-.7693-.307s-.5611.1175-.7639.3203-.3178.4771-.3203.7639.1078.5631.307.7693l4.6397 4.6408c.2051.2051.4832.3203.7733.3203.29 0 .5681-.1152.7732-.3203l9.2805-9.2804c.1992-.2063.3095-.4826.307-.7694s-.1175-.5611-.3203-.7639-.4771-.3178-.7639-.3203-.5631.1078-.7694.307z"/></g></svg>