<svg fill="none" height="70" viewBox="0 0 68 70" width="68" xmlns="http://www.w3.org/2000/svg"><g fill="#009185"><path d="m17.5381 22.9419c-.4802-.3003-1.1128-.1547-1.4131.3253l-3.8371 6.1316c-.4265.6818.0646 1.5693.8693 1.5693h1.9968l-2.8688 4.637c-.2979.4815-.149 1.1136.3325 1.4115.4813.2979 1.1136.1492 1.4115-.3325l3.837-6.2019c.4218-.6818-.0693-1.5648-.872-1.5648h-1.9858l2.8549-4.5622c.3004-.4802.1548-1.1129-.3252-1.4133z"/><path d="m64.9836 14.8027h-10.826c-6.9503 0-12.605 5.6545-12.605 12.605v29.9871c0 3.6284-2.9519 6.5801-6.5801 6.5801h-10.3043c-3.6283 0-6.5801-2.9519-6.5801-6.5801v-10.4078c1.3161-.807 2.196-2.2588 2.196-3.9124v-2.1979c4.3978-1.9905 7.4651-6.4204 7.4651-11.5534v-8.9463c1.4198-.707 2.3982-2.173 2.3982-3.864 0-2.3789-1.9354-4.3143-4.3143-4.3143h-1.0728v-2.8027c0-.56629-.4592-1.02539-1.0254-1.02539-.5663 0-1.0254.4591-1.0254 1.02539v2.8027h-2.0604v-9.11774c0-.56807.4621-1.03018 1.0302-1.03018s1.0302.46211 1.0302 1.03018v1.53015c0 .56629.4591 1.02539 1.0254 1.02539.5662 0 1.0254-.4591 1.0254-1.02539v-1.53015c0-1.69887-1.3821-3.08096-3.081-3.08096s-3.081 1.38209-3.081 3.08096v9.11804h-7.0455v-9.11804c0-1.69887-1.3821-3.08096-3.08095-3.08096-1.69886 0-3.08082 1.38209-3.08082 3.08096v9.11804h-1.07283c-2.3789 0-4.31429375 1.9354-4.31429375 4.3143 0 1.6909.97835975 3.157 2.39818375 3.8639 0 9.7168-.00984 9.2.02584 9.7618.03596.565.52062.9939 1.08828.9582.5652-.0359.99422-.5232.95826-1.0883-.02994-.4716-.02174.0711-.02174-9.1812h21.24567v8.496c0 6.0337-5.0448 10.8627-11.0675 10.6127-3.8045-.1558-7.23488-2.3206-9.00416-5.7533-.25936-.5034-.87774-.7011-1.38127-.4416-.5034.2594-.7011.8779-.4416 1.3813 1.34435 2.6083 3.49671 4.6075 6.06334 5.761v2.1912c0 1.6536.87989 3.1053 2.19599 3.9124v10.4078c0 6.9504 5.6545 12.6051 12.605 12.6051h10.3043c6.9505 0 12.605-5.6546 12.605-12.6051v-29.9873c0-3.6284 2.9518-6.5802 6.5801-6.5802h10.826c1.6611 0 3.0124-1.3513 3.0124-3.0124 0-1.6612-1.3513-3.0126-3.0124-3.0126zm-57.54178-11.72174c0-.56807.4621-1.03018 1.03017-1.03018s1.03018.46211 1.03018 1.03018v9.11804h-2.06035zm-3.54526 15.65494c-.01709-.0032-.03431-.006-.0514-.0097-1.0217-.2182-1.79047-1.1271-1.79047-2.2129 0-1.2481 1.01541-2.2635 2.26351-2.2635h21.5149c1.2481 0 2.2635 1.0154 2.2635 2.2635 0 1.1033-.7928 2.0237-1.8419 2.2226-.355.0674-22.02044.064-22.35814 0zm8.02144 22.8645c2.1122.5393 4.3002.5172 6.3153-.0015v1.4758c0 1.4156-1.1617 2.5354-2.5353 2.5354-1.3394 0-1.5587.0328-2.055-.1353-1.0014-.3392-1.7249-1.2858-1.7249-2.4001v-1.4743zm53.0656-22.8236h-10.826c-4.7591 0-8.6309 3.8719-8.6309 8.6309v29.9871c0 5.8196-4.7345 10.5543-10.5542 10.5543h-10.3043c-5.8197 0-10.5542-4.7346-10.5542-10.5543v-9.7464c.2798.0204 1.6446.0204 1.9233 0v9.7464c0 4.7592 3.8719 8.6309 8.6309 8.6309h10.3043c4.7591 0 8.6309-3.8719 8.6309-8.6309v-29.9869c0-5.8197 4.7345-10.5543 10.5542-10.5543h10.826c.5303 0 .9617.4315.9617.9617s-.4314.9615-.9617.9615z"/></g></svg>