<svg fill="none" height="70" viewBox="0 0 70 70" width="70" xmlns="http://www.w3.org/2000/svg"><path d="m8.7104 37.2142c-.68489-7.7079 2.012-15.2717 7.3992-20.752 4.0236-4.092 9.1477-6.7071 14.8186-7.56206 5.4807-.82639 11.189.11264 16.0731 2.64456.3316.172.3691.5072.1074.7962l-2.3624 2.3665c-1.5693 1.5724-.4878 4.3597 1.8029 4.3589h.0056l12.3213-.0256c1.4107-.0032 2.5578-1.1528 2.5568-2.5628l-.0127-12.3026c.0211-2.25852-2.833-3.363247-4.3657-1.79687l-2.9101 2.91485c-.1678.16829-.4287.20219-.6206.08093-7.3251-4.626545-16.0957-6.34672-24.6952-4.843225-.5579.097472-.9311.628715-.8335 1.186475.0975.5579.6287.9311 1.1865.8335 8.0978-1.41519 16.3535.203 23.247 4.55682.9955.62926 2.3276.4756 3.1674-.36569l2.9099-2.91485c.3866-.34696.8407-.12535.8639.34929l.0127 12.30317c.0001.2809-.2291.5098-.5108.5104l-12.3212.0256h-.0013c-.4916-.0231-.6933-.4849-.3516-.8595l2.3624-2.3664c1.2007-1.1875.8768-3.2922-.6149-4.0656-5.2655-2.72961-11.4174-3.74178-17.3226-2.85169-6.1136.92195-11.6377 3.74079-15.9751 8.15219-5.80918 5.9097-8.71774 14.0637-7.97952 22.3713.06069.6826-.17608 1.3463-.64977 1.8205-.63869.6395-1.52591.838-2.37349.5318-.83282-.3013-1.37759-1.0062-1.45729-1.8856-.8808-9.7154 2.53317-19.2321 9.36647-26.1103 3.691-3.71638 8.0733-6.4248 13.0246-8.05038.5381-.17662.8311-.75585.6545-1.29392-.1767-.53794-.7556-.8309-1.294-.65441-5.2621 1.72755-9.9187 4.60535-13.84 8.55341-7.26139 7.3093-10.889441 17.4202-9.954097 27.7404.151197 1.6677 1.225027 3.0583 2.802067 3.6288.48749.1763.98825.2623 1.48285.2623 1.12004-.0001 2.20863-.4414 3.03939-1.2735.90336-.9046 1.35585-2.1625 1.24129-3.4509zm24.6563 18.8303c.1452.0712.2991.1051.4509.1051.3788 0 .7431-.2108.9213-.5739 1.2939-2.6368 2.6853-6.28 3.3624-10.6745 2.5804-1.6529 6.676-5.032 7.6362-10.2589.7139-3.8861-.4221-8.1276-3.1983-11.9436-2.8431-3.9076-7.2109-7.0134-12.2987-8.7454-.6032-.2056-1.2549-.085-1.7428.3223-.4877.4068-.7228 1.0255-.629 1.6552.399 2.6771-.2185 5.3981-1.3795 7.6282-.3153.6055-.641 1.2313-.9646 2.0149-1.0952 2.6528-2.0326 6.9573-1.0707 10.3572.8302 2.9342 3.1969 5.4547 6.8439 7.2889 1.8416.9261 3.6286 1.486 4.7108 1.7759-.6606 3.9679-1.9285 7.267-3.1109 9.6765-.2492.5083-.0394 1.1226.469 1.3721zm-6.9396-20.6719c-.5524-1.9523-.4596-5.4975.9931-9.0163.2887-.6997.5934-1.2846.8879-1.8505 1.4009-2.6913 2.048-5.1992 1.6426-8.482 4.5316 1.6186 8.4025 4.4068 10.9304 7.8811 2.4424 3.3571 3.451 7.0387 2.8395 10.3665-.3247 1.7675-1.4531 4.9641-5.3061 7.9118.2187-2.8074.0491-5.975-.4255-8.8379.5273-.4871.9827-1.039 1.356-1.6482.949-1.5482 1.1534-3.0992 1.1575-4.1277.0023-.5662-.4548-1.0272-1.0212-1.0294h-.0042c-.5642 0-1.0228.4563-1.0252 1.0212-.0033.813-.2329 2.1556-.992 3.277-.6654-2.6725-1.6387-5.2718-2.9178-7.7707-.2581-.5041-.8758-.7034-1.3797-.4455-.5042.258-.7035.8758-.4456 1.3798 1.6562 3.2357 2.7735 6.648 3.3339 10.173-.1787-.1653-.3591-.3282-.5434-.4865-1.3147-1.1292-2.7765-2.084-4.3447-2.8381-.5099-.2452-1.1229-.0303-1.3684.4799-.2453.5103-.0305 1.123.4798 1.3684 1.4071.6763 2.7183 1.5328 3.8972 2.5453.8132.6983 1.5657 1.4752 2.2422 2.3113.1077 1.8914.0504 3.693-.1268 5.3906-2.5524-.7163-8.5281-2.8675-9.8595-7.5731zm42.4898-8.9373c-.3832-1.5043-1.508-2.648-3.0092-3.0595-1.5163-.4154-3.0863.0013-4.1986 1.1153-1.0669 1.0683-1.4989 2.6394-1.1277 4.0994 1.4126 5.5578.9536 11.538-1.2926 16.839-.2209.5213.0226 1.1232.544 1.344.5211.2211 1.123-.0224 1.3439-.544 2.42-5.7109 2.9143-12.1546 1.392-18.1441-.194-.7636.0325-1.5857.5915-2.1455.5846-.5854 1.4097-.8048 2.2054-.5864.7807.214 1.3654.8076 1.5641 1.588 1.5636 6.1372 1.3247 12.5744-.6903 18.616-2.0644 6.1898-5.8819 11.567-11.0399 15.5501-5.9494 4.593-13.3664 7.0185-20.878 6.8305-7.4063-.1855-14.5907-2.8804-20.2303-7.5884-.9048-.7547-2.245-.7771-3.1868-.0534l-3.26564 2.509c-.40943.2848-.8525.0438-.80998-.4599l1.60643-12.2048c.03692-.2793.29461-.4771.57403-.4405l12.20926 1.592c.5048.092.6124.5774.2366.8992l-2.6526 2.0376c-1.3466 1.0152-1.322 3.1344.075 4.1117 4.8577 3.3987 10.8153 5.2091 16.7881 5.1027 6.1786-.1119 12.0221-2.1832 16.8988-5.9896 2.4618-1.9213 4.5706-4.2154 6.2677-6.8187.3092-.4743.1752-1.1095-.2991-1.4188-.4748-.3095-1.1095-.1754-1.4189.2991-1.5732 2.4131-3.5285 4.5401-5.8114 6.322-4.5237 3.5308-9.9437 5.4521-15.6744 5.556-5.539.0961-11.07-1.5805-15.5761-4.7333-.3003-.2102-.301-.5525-.0008-.8047l2.6531-2.0379c1.789-1.3505.9434-4.2977-1.2207-4.5587l-12.20948-1.5921c-1.3981-.182-2.6871.8073-2.87193 2.2059l-1.60657 12.2055c-.13479 1.0268.35694 2.0245 1.25305 2.5419.89898.5188 2.013.4457 2.83871-.1879l3.26632-2.5094c.1876-.1441.45-.1431.6237.0018 5.993 5.003 13.6259 7.8667 21.4928 8.0637 7.968.1996 15.864-2.3778 22.1826-7.2573 5.4814-4.233 9.5381-9.947 11.732-16.5244 2.1396-6.4154 2.3926-13.2521.7319-19.7711z" fill="#009185"/></svg>